<?xml version="1.0" standalone="no"?>
<!DOCTYPE svg PUBLIC "-//W3C//DTD SVG 20010904//EN"
 "http://www.w3.org/TR/2001/REC-SVG-20010904/DTD/svg10.dtd">
<svg version="1.0" xmlns="http://www.w3.org/2000/svg"
 width="1883.000000pt" height="1883.000000pt" viewBox="0 0 1883.000000 1883.000000"
 preserveAspectRatio="xMidYMid meet">
<metadata>
Created by potrace 1.11, written by Peter Selinger 2001-2013
</metadata>
<g transform="translate(0.000000,1883.000000) scale(0.100000,-0.100000)"
fill="#000000" stroke="none">
<path d="M9404 17548 c-5 -7 -18 -29 -29 -49 -27 -49 -184 -320 -195 -339 -5
-8 -32 -53 -59 -100 -78 -136 -592 -1028 -856 -1485 -134 -231 -252 -436 -263
-455 -12 -19 -36 -62 -55 -95 -53 -92 -70 -123 -127 -220 -29 -49 -66 -115
-83 -145 -16 -30 -36 -62 -43 -71 -8 -8 -14 -18 -14 -21 0 -3 -32 -61 -71
-129 -159 -275 -293 -506 -314 -544 -13 -22 -46 -80 -75 -130 -29 -49 -62
-106 -72 -125 -29 -49 -111 -191 -125 -215 -7 -11 -15 -27 -19 -35 -4 -8 -25
-43 -46 -78 -21 -34 -38 -65 -38 -67 0 -3 -11 -22 -24 -43 -25 -39 -234 -400
-271 -467 -24 -43 -189 -330 -204 -355 -8 -12 -95 -163 -239 -412 -126 -218
-296 -514 -374 -648 -53 -91 -104 -181 -115 -200 -22 -38 -92 -160 -211 -365
-42 -71 -134 -231 -205 -355 -72 -124 -170 -295 -220 -380 -49 -85 -138 -240
-199 -345 -60 -104 -114 -197 -119 -205 -11 -17 -210 -364 -247 -430 -14 -25
-71 -124 -127 -220 -56 -96 -163 -281 -237 -410 -75 -129 -145 -251 -156 -270
-12 -19 -27 -46 -35 -60 -7 -14 -67 -117 -132 -230 -65 -113 -167 -288 -225
-390 -59 -102 -173 -300 -255 -440 -81 -140 -159 -275 -173 -300 -13 -25 -28
-49 -32 -55 -4 -5 -19 -30 -32 -55 -34 -61 -166 -291 -177 -310 -12 -18 -193
-332 -235 -405 -15 -27 -50 -87 -77 -133 -27 -45 -49 -85 -49 -87 0 -3 -15
-28 -33 -57 -19 -29 -37 -60 -40 -68 -4 -8 -15 -28 -25 -45 -10 -16 -30 -51
-44 -76 -14 -25 -44 -76 -67 -113 -22 -38 -41 -69 -41 -71 0 -2 -44 -79 -98
-172 -108 -184 -257 -443 -394 -683 -49 -85 -93 -162 -98 -170 -9 -14 -184
-318 -610 -1055 -112 -192 -212 -366 -223 -385 -10 -19 -52 -91 -92 -160 -40
-69 -82 -141 -93 -160 -20 -36 -235 -408 -432 -750 -62 -107 -121 -208 -131
-225 -11 -16 -22 -37 -26 -45 -4 -8 -23 -42 -44 -76 -20 -33 -39 -69 -43 -80
-6 -19 13 -19 1455 -19 l1461 0 24 40 c14 22 29 49 35 60 5 11 19 36 31 55 22
37 34 58 136 235 35 61 67 117 73 125 37 60 169 294 169 301 0 5 5 9 10 9 6 0
10 4 10 10 0 5 14 33 31 62 18 29 39 67 49 83 9 17 49 86 89 154 39 68 69 126
67 129 -3 2 5 21 18 41 13 20 25 41 27 46 2 6 29 53 60 105 51 87 296 510 341
588 10 18 53 93 95 165 42 73 83 146 92 162 9 17 19 32 24 33 4 2 7 7 7 11 0
4 41 79 92 167 50 87 114 197 141 244 26 47 58 101 69 120 42 73 322 556 341
590 11 19 111 194 224 388 112 194 212 367 222 385 10 18 75 130 144 250 70
121 127 222 127 225 0 3 6 13 14 21 7 9 27 41 43 71 17 30 69 122 117 204 47
82 86 150 86 152 0 2 15 27 33 56 19 29 37 60 40 68 4 8 15 29 26 45 10 17 28
48 41 70 12 22 55 96 95 165 40 69 82 141 92 160 11 19 46 80 78 135 32 55
149 258 260 450 258 448 487 845 583 1010 42 72 82 141 90 155 8 14 25 43 38
65 13 22 29 52 35 68 6 15 15 27 20 27 5 0 9 4 9 9 0 5 38 75 85 156 47 80 85
148 85 151 0 3 5 10 10 17 6 7 74 122 151 257 78 135 172 298 210 363 38 65
69 120 69 123 0 3 8 18 19 32 10 15 29 47 43 72 22 39 70 122 98 170 106 179
330 573 330 581 0 5 5 9 10 9 6 0 10 4 10 9 0 5 48 91 106 192 59 101 114 198
124 214 57 100 256 444 300 520 29 50 62 106 72 125 31 54 315 547 358 620
102 175 155 268 237 410 331 573 446 771 448 768 2 -3 252 -435 490 -848 97
-169 248 -431 329 -569 36 -62 66 -115 66 -118 0 -2 11 -20 23 -41 13 -20 42
-68 64 -107 23 -38 72 -124 110 -190 39 -66 81 -140 95 -165 29 -52 276 -478
307 -530 11 -19 34 -60 51 -90 17 -30 40 -71 51 -90 25 -41 352 -607 384 -665
13 -22 47 -80 75 -130 45 -76 244 -423 300 -520 10 -16 31 -53 47 -81 17 -27
41 -70 55 -95 14 -24 97 -168 185 -320 89 -152 172 -296 186 -320 13 -24 58
-102 99 -174 42 -71 125 -215 185 -320 61 -104 136 -235 168 -290 32 -55 66
-113 75 -130 9 -16 86 -149 170 -295 84 -146 164 -285 178 -310 14 -25 36 -62
49 -82 12 -21 23 -40 23 -44 0 -3 9 -19 20 -35 12 -15 33 -51 48 -78 15 -28
106 -186 202 -352 96 -166 184 -318 195 -338 11 -20 37 -64 58 -99 20 -35 37
-67 37 -73 0 -5 5 -9 10 -9 6 0 10 -4 10 -9 0 -5 48 -91 106 -192 59 -101 176
-305 262 -454 86 -148 203 -351 260 -450 57 -99 116 -200 130 -224 13 -25 38
-67 53 -93 16 -27 29 -53 29 -58 0 -6 5 -10 10 -10 6 0 10 -4 10 -9 0 -5 57
-107 126 -227 70 -121 135 -234 146 -252 33 -60 199 -347 208 -362 5 -8 49
-85 98 -170 49 -85 222 -384 384 -665 162 -280 300 -520 306 -531 l11 -22
-3742 0 c-2058 -1 -3762 -1 -3787 -2 l-45 0 -45 -78 c-166 -289 -210 -367
-210 -373 0 -4 -3 -9 -7 -11 -5 -1 -15 -16 -24 -33 -9 -16 -50 -89 -92 -162
-42 -72 -85 -147 -95 -165 -11 -18 -70 -120 -131 -226 -62 -107 -114 -199
-117 -205 -3 -9 1225 -12 5235 -12 2882 0 5242 3 5245 6 5 5 -15 47 -54 109
-13 21 -112 192 -275 475 -76 132 -146 254 -155 270 -64 110 -96 166 -118 205
-14 25 -71 124 -127 220 -104 178 -316 546 -352 610 -11 19 -43 73 -70 120
-28 47 -61 103 -73 125 -29 52 -377 656 -490 850 -48 83 -149 258 -225 390
-77 132 -195 337 -263 455 -68 118 -135 233 -147 255 -13 22 -80 139 -150 260
-70 121 -138 238 -150 260 -21 36 -133 229 -191 330 -13 22 -27 47 -30 55 -4
8 -15 26 -24 40 -10 14 -28 45 -42 70 -14 25 -109 191 -213 370 -103 179 -197
341 -207 360 -33 58 -118 204 -128 220 -5 8 -34 58 -63 110 -30 52 -104 181
-165 285 -60 105 -178 309 -262 454 -83 145 -160 278 -171 295 -10 17 -22 38
-26 46 -4 8 -31 55 -60 104 -29 49 -53 90 -53 91 0 3 -197 345 -210 365 -6 8
-13 22 -17 30 -4 8 -40 71 -80 139 -40 67 -73 124 -73 126 0 2 -27 49 -60 104
-33 56 -60 106 -60 111 0 6 -4 10 -10 10 -5 0 -10 4 -10 10 0 5 -27 55 -60
111 -33 55 -60 102 -60 104 0 2 -21 39 -46 82 -40 66 -147 251 -215 370 -10
18 -69 119 -130 225 -61 106 -121 209 -132 228 -10 19 -71 125 -135 235 -64
110 -123 213 -131 228 -9 16 -20 36 -26 46 -69 116 -356 613 -388 671 -17 30
-45 79 -64 108 -18 29 -33 54 -33 57 0 3 -18 34 -40 70 -22 36 -40 67 -40 70
0 3 -17 33 -38 67 -21 35 -52 88 -69 118 -16 30 -95 168 -175 305 -80 138
-153 264 -162 280 -9 17 -26 45 -36 63 -11 18 -73 124 -137 235 -63 111 -148
258 -188 327 -40 69 -82 141 -93 160 -37 67 -152 265 -162 280 -5 8 -17 29
-26 45 -9 17 -93 162 -186 323 -93 161 -178 309 -189 329 -11 20 -60 104 -109
187 -83 143 -115 198 -147 256 -8 14 -26 46 -41 71 -21 36 -131 226 -207 357
-5 9 -25 44 -44 77 -19 33 -141 245 -271 470 -131 226 -245 424 -254 440 -9
17 -21 37 -26 45 -28 44 -90 151 -90 156 0 3 -16 30 -35 60 -19 30 -35 56 -35
59 0 2 -14 28 -31 57 -18 29 -39 67 -49 83 -118 207 -284 492 -290 498 -4 5
-12 3 -16 -5z"/>
</g>
</svg>
